<?xml version="1.0" encoding="UTF-8" standalone="no"?>
<!-- Created with Inkscape (http://www.inkscape.org/) -->

<svg
   width="287.20584"
   height="76.251686"
   viewBox="0 0 75.989878 20.174926"
   version="1.1"
   id="svg5"
   inkscape:version="1.1.2 (0a00cf5339, 2022-02-04)"
   sodipodi:docname="akvorado.svg"
   xmlns:inkscape="http://www.inkscape.org/namespaces/inkscape"
   xmlns:sodipodi="http://sodipodi.sourceforge.net/DTD/sodipodi-0.dtd"
   xmlns="http://www.w3.org/2000/svg"
   xmlns:svg="http://www.w3.org/2000/svg">
  <sodipodi:namedview
     id="namedview7"
     pagecolor="#ffffff"
     bordercolor="#666666"
     borderopacity="1.0"
     inkscape:pageshadow="2"
     inkscape:pageopacity="0.0"
     inkscape:pagecheckerboard="0"
     inkscape:document-units="mm"
     showgrid="false"
     fit-margin-top="10"
     lock-margins="true"
     fit-margin-left="10"
     fit-margin-right="10"
     fit-margin-bottom="10"
     units="px"
     inkscape:zoom="1"
     inkscape:cx="190"
     inkscape:cy="88.5"
     inkscape:window-width="1894"
     inkscape:window-height="1034"
     inkscape:window-x="1930"
     inkscape:window-y="30"
     inkscape:window-maximized="1"
     inkscape:current-layer="layer1" />
  <defs
     id="defs2" />
  <g
     inkscape:label="Layer 1"
     inkscape:groupmode="layer"
     id="layer1"
     transform="translate(-30.07189,-113.10053)">
    <path
       d="m 32.717723,126.65779 h 2.035069 l 0.923719,-2.33816 h 4.430963 l 0.952586,2.33816 h 2.078367 L 38.73633,116.43915 h -1.573209 z m 3.579412,-3.89694 1.602074,-4.15673 1.573209,4.15673 z"
       id="path34840"
       style="font-weight:bold;font-size:8.46667px;line-height:6.61458px;font-family:'Avenir LT Std';-inkscape-font-specification:'Avenir LT Std Bold';letter-spacing:-0.150813px;word-spacing:0px;fill:#008aff;stroke-width:0.264583px" />
    <path
       d="m 43.862763,126.65779 h 1.731972 v -3.53612 h 0.02886 l 2.756723,3.53612 h 2.294864 l -3.16085,-3.78148 2.97322,-3.14641 H 48.26486 l -2.670125,2.87218 v -6.85572 h -1.731972 z"
       id="path34842"
       style="font-weight:bold;font-size:8.46667px;line-height:6.61458px;font-family:'Avenir LT Std';-inkscape-font-specification:'Avenir LT Std Bold';letter-spacing:-0.150813px;word-spacing:0px;fill:#008aff;stroke-width:0.264583px" />
    <path
       d="m 53.246972,126.65779 h 1.847438 l 2.727857,-6.92789 h -1.775272 l -1.86187,4.84952 h -0.02886 L 52.308826,119.7299 H 50.41809 Z"
       id="path34844"
       style="font-weight:bold;font-size:8.46667px;line-height:6.61458px;font-family:'Avenir LT Std';-inkscape-font-specification:'Avenir LT Std Bold';letter-spacing:-0.150813px;word-spacing:0px;fill:#008aff;stroke-width:0.264583px" />
    <path
       d="m 58.243521,123.19384 c 0,2.17939 1.674239,3.63715 3.767042,3.63715 2.0928,0 3.767039,-1.45776 3.767039,-3.63715 0,-2.1794 -1.674239,-3.63714 -3.767039,-3.63714 -2.092803,0 -3.767042,1.45774 -3.767042,3.63714 z m 1.731972,0 c 0,-1.08248 0.764956,-2.07836 2.03507,-2.07836 1.270111,0 2.035067,0.99588 2.035067,2.07836 0,1.08249 -0.764956,2.07837 -2.035067,2.07837 -1.270114,0 -2.03507,-0.99588 -2.03507,-2.07837 z"
       id="path34846"
       style="font-weight:bold;font-size:8.46667px;line-height:6.61458px;font-family:'Avenir LT Std';-inkscape-font-specification:'Avenir LT Std Bold';letter-spacing:-0.150813px;word-spacing:0px;fill:#008aff;stroke-width:0.264583px" />
    <path
       d="m 67.137003,126.65779 h 1.731974 v -3.70932 c 0,-0.37525 0.230928,-1.74639 1.86187,-1.74639 0.274229,0 0.548457,0.0578 0.83712,0.12989 v -1.67425 c -0.202064,-0.0578 -0.404127,-0.10109 -0.620624,-0.10109 -0.909285,0 -1.674241,0.4763 -2.049501,1.27011 h -0.02886 v -1.09691 h -1.731974 z"
       id="path34848"
       style="font-weight:bold;font-size:8.46667px;line-height:6.61458px;font-family:'Avenir LT Std';-inkscape-font-specification:'Avenir LT Std Bold';letter-spacing:-0.150813px;word-spacing:0px;fill:#008aff;stroke-width:0.264583px" />
    <path
       d="m 76.824322,126.65779 h 1.558777 v -3.98354 c 0,-0.98146 0,-3.11755 -2.958788,-3.11755 -1.096916,0 -2.179399,0.33196 -2.944353,1.11135 l 0.909286,0.90928 c 0.461858,-0.43299 1.125781,-0.72165 1.847438,-0.72165 0.923719,0 1.58764,0.44742 1.58764,1.29898 v 0.18762 h -0.432993 c -1.731972,0 -4.358798,0.15871 -4.358798,2.41034 0,1.37114 1.241248,2.07837 2.525794,2.07837 0.923719,0 1.731974,-0.3464 2.222698,-1.12579 h 0.0433 z m -0.101037,-2.71344 c 0,0.96703 -0.562891,1.58766 -1.746406,1.58766 -0.562893,0 -1.212382,-0.27424 -1.212382,-0.90929 0,-0.99588 1.645375,-1.06806 2.59796,-1.06806 h 0.360828 z"
       id="path34850"
       style="font-weight:bold;font-size:8.46667px;line-height:6.61458px;font-family:'Avenir LT Std';-inkscape-font-specification:'Avenir LT Std Bold';letter-spacing:-0.150813px;word-spacing:0px;fill:#008aff;stroke-width:0.264583px" />
    <path
       d="m 85.472443,126.65779 h 1.645374 v -10.91143 h -1.731972 v 4.86395 h -0.0433 c -0.360829,-0.44742 -1.053618,-1.05361 -2.352598,-1.05361 -1.977335,0 -3.348481,1.58764 -3.348481,3.63714 0,2.04949 1.284548,3.63715 3.420647,3.63715 0.967019,0 1.876304,-0.37528 2.381462,-1.21238 h 0.02886 z m -4.099003,-3.46395 c 0,-1.08248 0.764955,-2.07836 2.035069,-2.07836 1.270113,0 2.035067,0.99588 2.035067,2.07836 0,1.08249 -0.764954,2.07837 -2.035067,2.07837 -1.270114,0 -2.035069,-0.99588 -2.035069,-2.07837 z"
       id="path34852"
       style="font-weight:bold;font-size:8.46667px;line-height:6.61458px;font-family:'Avenir LT Std';-inkscape-font-specification:'Avenir LT Std Bold';letter-spacing:-0.150813px;word-spacing:0px;fill:#008aff;stroke-width:0.264583px" />
    <path
       id="path34854"
       style="font-weight:bold;font-size:8.46667px;line-height:6.61458px;font-family:'Avenir LT Std';-inkscape-font-specification:'Avenir LT Std Bold';letter-spacing:-0.150813px;word-spacing:0px;fill:#008aff;stroke-width:0.264583px"
       d="m 92.244323,119.55684 c -2.0928,0 -3.766841,1.45794 -3.766841,3.63735 0,2.17939 1.674041,3.63646 3.766841,3.63646 2.092804,0 3.766846,-1.45707 3.766846,-3.63646 0,-2.17941 -1.674042,-3.63735 -3.766846,-3.63735 z m -0.384083,0.0335 c 0.318201,-0.0372 0.518798,0.85445 0.738217,1.55219 0.526254,0.0829 0.944412,0.35044 1.232416,0.71796 0.715832,-0.17418 1.605845,-0.47974 1.741593,-0.18412 0.138733,0.30212 -0.710294,0.79319 -1.311699,1.22978 0.01204,0.0947 0.01849,0.19133 0.01849,0.28806 0,0.37252 -0.09104,0.73423 -0.261632,1.04918 0.386925,0.62868 0.958272,1.38709 0.717952,1.60857 -0.234799,0.21641 -0.918261,-0.38231 -1.504624,-0.81749 -0.280376,0.15043 -0.611345,0.23784 -0.986637,0.23784 -0.168719,0 -0.328056,-0.0181 -0.47834,-0.0511 -0.46623,0.55638 -0.984455,1.27876 -1.259726,1.12406 -0.273512,-0.1537 0.06847,-0.96252 0.301277,-1.64733 -0.352993,-0.35603 -0.560978,-0.84273 -0.593746,-1.35927 -0.677309,-0.27526 -1.547274,-0.54858 -1.484359,-0.86242 0.06243,-0.31143 0.957939,-0.23106 1.686093,-0.22288 0.212938,-0.45472 0.584672,-0.82467 1.086181,-1.00954 0.05038,-0.72468 0.04447,-1.6168 0.358537,-1.6535 z" />
    <path
       fill="#003f7f"
       id="path2392"
       d="m 90.773637,130.61285 c 2.096125,-0.14362 4.343482,0.11884 6.25831,-0.92926 2.886125,-1.62154 4.321033,-5.61671 2.748235,-8.60997 -1.615567,-2.8944 -5.438072,-4.11118 -8.521013,-3.09521 -1.440315,0.49783 -2.647179,1.64346 -3.17241,3.07869 0.03483,0.46971 0.429007,-0.54904 0.641262,-0.63717 0.938675,-1.13745 2.370283,-1.91164 3.870277,-1.80965 1.867469,0.0696 3.428769,1.52402 4.059414,3.21754 0.606814,1.4142 0.580868,3.25515 -0.5885,4.38002 -1.676811,1.76153 -3.979278,2.8234 -6.317816,3.38609 -1.057647,0.25736 -2.152346,0.29912 -3.228859,0.15233 -0.246286,-0.0152 -0.82219,-0.0779 -0.276216,0.11618 1.406516,0.65621 2.991595,0.82631 4.527316,0.75041 z"
       style="fill:#5abdf6;fill-opacity:1;stroke-width:0.264582" />
    <path
       fill="#003f7f"
       id="path2388"
       d="m 96.844137,130.09685 c 1.818873,-0.0542 3.755343,0.004 5.394543,-0.9119 0.66322,-0.30119 1.10351,-0.97436 1.16389,-1.69324 0.1043,-1.23345 -0.42055,-2.4085 -0.92885,-3.50011 -0.72005,-1.48161 -1.64914,-2.85201 -2.663488,-4.14643 -0.431263,-0.0467 0.0677,0.57629 0.14909,0.76679 0.359398,0.60029 0.618008,1.25542 0.848048,1.91505 0.40259,1.20514 0.47062,2.56613 -0.0641,3.74323 -0.68801,1.74858 -2.166307,3.13289 -3.899103,3.82661 z"
       style="fill:#5abdf6;fill-opacity:1;stroke-width:0.264582" />
  </g>
</svg>
